<svg width="35" height="35" viewBox="0 0 35 35" fill="none" xmlns="http://www.w3.org/2000/svg">
<path d="M29.1667 5.83331H5.83332C4.22478 5.83331 2.91666 7.14144 2.91666 8.74998V26.25C2.91666 27.8585 4.22478 29.1666 5.83332 29.1666H29.1667C30.7752 29.1666 32.0833 27.8585 32.0833 26.25V8.74998C32.0833 7.14144 30.7752 5.83331 29.1667 5.83331ZM12.7094 11.6666C14.3879 11.6666 15.626 12.9048 15.626 14.5833C15.626 16.2619 14.3879 17.5 12.7094 17.5C11.0308 17.5 9.7927 16.2619 9.7927 14.5833C9.7927 12.9048 11.0294 11.6666 12.7094 11.6666ZM18.1271 23.3333H7.29166V22.6552C7.29166 20.6529 9.73582 18.5937 12.7094 18.5937C15.6829 18.5937 18.1271 20.6529 18.1271 22.6552V23.3333ZM27.7083 21.875H21.875V18.9583H27.7083V21.875ZM27.7083 16.0416H20.4167V13.125H27.7083V16.0416Z" fill="black"/>
</svg>
