<svg width="35" height="35" viewBox="0 0 35 35" fill="none" xmlns="http://www.w3.org/2000/svg">
<path d="M17.5 17.5C15.8958 17.5 14.5226 16.9289 13.3802 15.7865C12.2379 14.6441 11.6667 13.2709 11.6667 11.6667C11.6667 10.0625 12.2379 8.68928 13.3802 7.54692C14.5226 6.40455 15.8958 5.83337 17.5 5.83337C19.1042 5.83337 20.4774 6.40455 21.6198 7.54692C22.7622 8.68928 23.3333 10.0625 23.3333 11.6667C23.3333 13.2709 22.7622 14.6441 21.6198 15.7865C20.4774 16.9289 19.1042 17.5 17.5 17.5ZM5.83334 29.1667V25.0834C5.83334 24.257 6.04626 23.4977 6.47209 22.8055C6.89793 22.1132 7.46279 21.5843 8.16668 21.2188C9.67362 20.4653 11.2049 19.9005 12.7604 19.5242C14.316 19.148 15.8958 18.9593 17.5 18.9584C19.1042 18.9584 20.684 19.147 22.2396 19.5242C23.7951 19.9014 25.3264 20.4663 26.8333 21.2188C27.5382 21.5834 28.1036 22.1123 28.5294 22.8055C28.9552 23.4987 29.1677 24.258 29.1667 25.0834V29.1667H5.83334Z" fill="black"/>
</svg>
