<svg width="35" height="35" viewBox="0 0 35 35" fill="none" xmlns="http://www.w3.org/2000/svg">
<path d="M30.625 27.7083H33.5417V30.625H1.45834V27.7083H4.37501V5.83333C4.37501 5.44656 4.52866 5.07563 4.80215 4.80214C5.07564 4.52865 5.44657 4.375 5.83334 4.375H20.4167C20.8034 4.375 21.1744 4.52865 21.4479 4.80214C21.7214 5.07563 21.875 5.44656 21.875 5.83333V27.7083H24.7917V13.125H29.1667C29.5534 13.125 29.9244 13.2786 30.1979 13.5521C30.4714 13.8256 30.625 14.1966 30.625 14.5833V27.7083ZM10.2083 16.0417V18.9583H16.0417V16.0417H10.2083ZM10.2083 10.2083V13.125H16.0417V10.2083H10.2083Z" fill="black"/>
</svg>
