<svg width="34" height="34" viewBox="0 0 34 34" fill="none" xmlns="http://www.w3.org/2000/svg">
<path d="M33.5294 18.504L22.1955 33.3765C21.1836 34.7045 19.4295 33.7749 19.4295 31.8716V23.373H10.2545C9.35721 23.373 8.63535 22.4258 8.63535 21.2484V12.7498C8.63535 11.5724 9.35721 10.6251 10.2545 10.6251H19.4295V2.12653C19.4295 0.232053 21.1768 -0.706333 22.1955 0.621572L33.5294 15.4941C34.1569 16.3263 34.1569 17.6719 33.5294 18.504ZM12.953 32.9339V29.3928C12.953 28.8086 12.5887 28.3305 12.1435 28.3305H6.47651C5.2824 28.3305 4.31767 27.0646 4.31767 25.4976V8.50047C4.31767 6.93354 5.2824 5.66761 6.47651 5.66761H12.1435C12.5887 5.66761 12.953 5.18956 12.953 4.60528V1.06421C12.953 0.479928 12.5887 0.00188284 12.1435 0.00188284H6.47651C2.90094 0.00188284 0 3.80854 0 8.50047V25.4976C0 30.1896 2.90094 33.9962 6.47651 33.9962H12.1435C12.5887 33.9962 12.953 33.5182 12.953 32.9339Z" fill="black"/>
</svg>
