<svg width="35" height="35" viewBox="0 0 35 35" fill="none" xmlns="http://www.w3.org/2000/svg">
<path d="M30.625 4.375V35H4.375V4.375H13.125C13.125 3.77116 13.2389 3.20719 13.4668 2.68311C13.6947 2.15902 14.008 1.69189 14.4067 1.28174C14.8055 0.871582 15.2669 0.558268 15.791 0.341797C16.3151 0.125326 16.8848 0.0113932 17.5 0C18.1038 0 18.6678 0.113932 19.1919 0.341797C19.716 0.569661 20.1831 0.882975 20.5933 1.28174C21.0034 1.6805 21.3167 2.14193 21.5332 2.66602C21.7497 3.1901 21.8636 3.75977 21.875 4.375H30.625ZM10.9375 8.75H24.0625V6.5625H19.6875V4.375C19.6875 4.06738 19.6305 3.78255 19.5166 3.52051C19.4027 3.25846 19.2489 3.0306 19.0552 2.83691C18.8615 2.64323 18.6279 2.48372 18.3545 2.3584C18.0811 2.23307 17.7962 2.17611 17.5 2.1875C17.1924 2.1875 16.9076 2.24447 16.6455 2.3584C16.3835 2.47233 16.1556 2.62614 15.9619 2.81982C15.7682 3.01351 15.6087 3.24707 15.4834 3.52051C15.3581 3.79395 15.3011 4.07878 15.3125 4.375V6.5625H10.9375V8.75ZM28.4375 6.5625H26.25V10.9375H8.75V6.5625H6.5625V32.8125H28.4375V6.5625ZM17.5 15.3125H26.25V17.5H17.5V15.3125ZM17.5 21.875H26.25V24.0625H17.5V21.875ZM17.5 28.4375H26.25V30.625H17.5V28.4375ZM14.5435 12.356L16.0815 13.894L12.0312 17.9443L9.07471 14.9878L10.6128 13.4497L12.0312 14.8682L14.5435 12.356ZM14.5435 18.9185L16.0815 20.4565L12.0312 24.5068L9.07471 21.5503L10.6128 20.0122L12.0312 21.4307L14.5435 18.9185ZM14.5435 25.481L16.0815 27.019L12.0312 31.0693L9.07471 28.1128L10.6128 26.5747L12.0312 27.9932L14.5435 25.481Z" fill="black"/>
</svg>
