<svg width="200" height="200" viewBox="0 0 200 200" fill="none" xmlns="http://www.w3.org/2000/svg">
<path d="M141.433 52.0916C139.52 51.027 137.416 50.35 135.241 50.0993C133.066 49.8486 130.863 50.0291 128.758 50.6305C126.653 51.2318 124.687 52.2423 122.972 53.604C121.258 54.9658 119.829 56.6521 118.767 58.5666L87.825 114.25L70.1167 96.5416C68.5792 94.9498 66.7401 93.6801 64.7067 92.8066C62.6733 91.9331 60.4863 91.4733 58.2734 91.4541C56.0604 91.4349 53.8657 91.8566 51.8174 92.6946C49.7692 93.5326 47.9083 94.7701 46.3434 96.335C44.7785 97.8999 43.541 99.7608 42.703 101.809C41.865 103.857 41.4433 106.052 41.4625 108.265C41.4817 110.478 41.9415 112.665 42.815 114.698C43.6885 116.732 44.9582 118.571 46.55 120.108L79.8833 153.442C83.0333 156.6 87.2833 158.333 91.6667 158.333L93.975 158.167C96.5296 157.809 98.9664 156.864 101.093 155.405C103.221 153.946 104.98 152.013 106.233 149.758L147.9 74.7583C148.964 72.8454 149.64 70.7417 149.891 68.5673C150.142 66.3929 149.962 64.1904 149.361 62.0856C148.761 59.9808 147.752 58.0148 146.391 56.3001C145.031 54.5853 143.346 53.1552 141.433 52.0916Z" fill="#FEF9F9"/>
</svg>
