<svg width="34" height="34" viewBox="0 0 34 34" fill="none" xmlns="http://www.w3.org/2000/svg">
<path d="M17 19.125C22.2793 19.125 26.5625 14.8418 26.5625 9.5625C26.5625 4.2832 22.2793 0 17 0C11.7207 0 7.4375 4.2832 7.4375 9.5625C7.4375 14.8418 11.7207 19.125 17 19.125ZM25.5 21.25H21.841C20.3668 21.9273 18.7266 22.3125 17 22.3125C15.2734 22.3125 13.6398 21.9273 12.159 21.25H8.5C3.80508 21.25 0 25.0551 0 29.75V30.8125C0 32.5723 1.42773 34 3.1875 34H30.8125C32.5723 34 34 32.5723 34 30.8125V29.75C34 25.0551 30.1949 21.25 25.5 21.25Z" fill="black"/>
</svg>
