<svg width="41" height="43" viewBox="0 0 41 43" fill="none" xmlns="http://www.w3.org/2000/svg">
<path d="M41 30.2344V2.01562C41 0.898633 40.0208 0 38.8036 0H8.78571C3.93527 0 0 3.61133 0 8.0625V34.9375C0 39.3887 3.93527 43 8.78571 43H38.8036C40.0208 43 41 42.1014 41 40.9844V39.6406C41 39.0107 40.6797 38.4396 40.1855 38.0701C39.8011 36.7768 39.8011 33.0898 40.1855 31.7965C40.6797 31.4354 41 30.8643 41 30.2344ZM11.7143 11.2539C11.7143 10.9768 11.9614 10.75 12.2634 10.75H31.6652C31.9672 10.75 32.2143 10.9768 32.2143 11.2539V12.9336C32.2143 13.2107 31.9672 13.4375 31.6652 13.4375H12.2634C11.9614 13.4375 11.7143 13.2107 11.7143 12.9336V11.2539ZM11.7143 16.6289C11.7143 16.3518 11.9614 16.125 12.2634 16.125H31.6652C31.9672 16.125 32.2143 16.3518 32.2143 16.6289V18.3086C32.2143 18.5857 31.9672 18.8125 31.6652 18.8125H12.2634C11.9614 18.8125 11.7143 18.5857 11.7143 18.3086V16.6289ZM34.9049 37.625H8.78571C7.16585 37.625 5.85714 36.424 5.85714 34.9375C5.85714 33.4594 7.175 32.25 8.78571 32.25H34.9049C34.731 33.6861 34.731 36.1889 34.9049 37.625Z" fill="#FAF4F4"/>
</svg>
