<svg width="36" height="34" viewBox="0 0 36 34" fill="none" xmlns="http://www.w3.org/2000/svg">
<path d="M0 2C0 0.89543 0.895431 0 2 0H15.2446C16.3492 0 17.2446 0.89543 17.2446 2V14.2866C17.2446 15.3912 16.3492 16.2866 15.2446 16.2866H2C0.895431 16.2866 0 15.3912 0 14.2866V2ZM18.7554 2C18.7554 0.89543 19.6508 0 20.7554 0H34C35.1046 0 36 0.89543 36 2V14.2866C36 15.3912 35.1046 16.2866 34 16.2866H20.7554C19.6508 16.2866 18.7554 15.3912 18.7554 14.2866V2ZM0 19.7134C0 18.6088 0.895431 17.7134 2 17.7134H15.2446C16.3492 17.7134 17.2446 18.6088 17.2446 19.7134V32C17.2446 33.1046 16.3492 34 15.2446 34H2C0.895431 34 0 33.1046 0 32V19.7134ZM18.7554 19.7134C18.7554 18.6088 19.6508 17.7134 20.7554 17.7134H34C35.1046 17.7134 36 18.6088 36 19.7134V32C36 33.1046 35.1046 34 34 34H20.7554C19.6508 34 18.7554 33.1046 18.7554 32V19.7134Z" fill="black"/>
</svg>
