<svg width="10" height="25" viewBox="0 0 10 25" fill="none" xmlns="http://www.w3.org/2000/svg">
<path d="M3.125 24.2188V0.78125C3.125 0.351562 2.77344 0 2.34375 0H0.78125C0.351562 0 0 0.351562 0 0.78125V24.2188C0 24.6484 0.351562 25 0.78125 25H2.34375C2.77344 25 3.125 24.6484 3.125 24.2188ZM9.375 24.2188V0.78125C9.375 0.351562 9.02344 0 8.59375 0H7.03125C6.60156 0 6.25 0.351562 6.25 0.78125V24.2188C6.25 24.6484 6.60156 25 7.03125 25H8.59375C9.02344 25 9.375 24.6484 9.375 24.2188Z" fill="black"/>
</svg>
